<?xml version="1.0" encoding="UTF-8" standalone="no"?>
<svg id="svg2" xmlns="http://www.w3.org/2000/svg" height="128"
     viewBox="0 0 256 128" width="256" version="1.1"
>
    <g id="layer1" transform="translate(-8.4343 -832.68)">
        <text id="text4140" style="word-spacing:0px;letter-spacing:0px" xml:space="preserve" font-size="25px" line-height="125%" y="931.4693" x="43.035713" font-family="sans-serif"><tspan id="tspan4142" y="931.4693" x="43.035713"/></text>
        <g id="g4200" font-size="118.86px" font-family="Purisa" transform="translate(-1.5946 .000022581)">
            <g id="text4136">
                <path id="path4166" style=""
                      d="m46.385 12.414c-2.615 0-8.082 0.395-16.403 1.188-6.497 0.713-10.38 2.022-11.648 3.923-1.347 1.902-2.536 2.852-3.566 2.852-0.872 0-1.824 0.792-2.854 2.377s-1.545 2.932-1.545 4.041c0 0.872 0.515 1.903 1.545 3.092 1.03 1.109 1.824 1.664 2.379 1.664s1.347-0.515 2.377-1.545 2.377-2.102 4.041-3.211c1.664-1.189 3.408-1.861 5.23-2.02l4.278-0.357 1.902 20.562c0.792 8.321 1.625 15.929 2.496 22.823 0.951 6.814 1.625 11.924 2.022 15.332 0.396 3.328 0.593 6.616 0.593 9.865 0 6.181-0.752 9.55-2.257 10.1-1.506 0.56-2.26 1.91-2.26 4.04 0 1.27 0.317 2.3 0.951 3.1 0.634 0.79 1.308 1.3 2.022 1.54 0.792 0.24 1.504 0.56 2.138 0.95 0.634 0.4 0.951 0.87 0.951 1.43 0 0.95 1.229 1.42 3.686 1.42 1.505 0 2.575-0.39 3.209-1.18 0.713-0.72 1.108-1.55 1.187-2.5 0.08-0.95 0.594-1.98 1.545-3.09 0.951-1.03 2.418-1.78 4.399-2.26 4.675-1.11 9.47-3.29 14.383-6.54 3.904-2.641 7.655-5.82 11.259-9.516-1.213 3.163-2.219 4.97-2.994 5.252-1.109 0.396-1.664 1.348-1.664 2.854 0 1.109-0.832 2.89-2.496 5.35-1.664 2.37-2.496 4.16-2.496 5.35 0 1.03 0.395 1.78 1.187 2.25 0.793 0.48 1.625 0.72 2.497 0.72 2.06 0 4.001-2.14 5.824-6.42 2.218-5.39 6.536-14.066 12.955-26.032l3.447-6.537 8.325-0.713c5.15-0.396 9.86-0.911 14.14-1.545l5.82-0.712 2.26 9.388c0.56 2.298 1.07 4.677 1.55 7.133 0.55 2.456 0.95 4.238 1.19 5.348 0.23 1.109 0.51 2.258 0.83 3.447s0.59 2.061 0.83 2.615c0.32 0.555 0.71 1.07 1.19 1.545 0.48 0.473 1.07 0.913 1.78 1.313 1.59 0.87 2.82 1.3 3.69 1.3 0.76 0 1.26-0.4 1.49-1.2 0.75 2.73 1.93 4.1 3.52 4.1 1.35 0 2.22-0.43 2.62-1.3 0.4-0.8 0.59-2.14 0.59-4.045 0-3.883-0.04-6.854-0.12-8.914l-0.47-13.906 9.27 3.683c4.6 1.823 9.27 4.042 14.03 6.657 4.75 2.535 8.47 4.557 11.17 6.062 1.46 0.753 2.7 1.293 3.75 1.649 0.72 8.374 1.83 13.454 3.33 15.164 1.03 1.19 3.21 1.78 6.54 1.78 7.29 0 17.03-1.55 29.24-4.64 12.2-3.09 19.57-5.66 22.1-7.722 1.51-1.427 2.26-2.416 2.26-2.971 0-0.634-0.43-1.466-1.31-2.496-0.79-1.03-1.86-1.545-3.2-1.545-0.24 0-3.69 0.872-10.35 2.615-6.57 1.664-13.59 3.368-21.03 5.109-7.37 1.67-12.09 2.5-14.15 2.5-0.63 0-1.11-0.04-1.42-0.12-1.51-0.16-2.54-1.47-3.1-3.924-0.71-3.17-1.62-16.441-2.73-39.817-1.03-22.346-2.06-34.826-3.09-37.441-1.19-2.932-2.58-4.399-4.16-4.399-1.19 0-1.78 0.992-1.78 2.973 0 0.656 0.02 1.613 0.02 2.352-1.32-1.611-3.2-2.772-5.68-3.473-1.98-0.634-8.04-1.586-18.18-2.854-10.14-1.267-16.72-1.9-19.73-1.9-0.95 0-3.21 2.019-6.78 6.061-3.56 4.041-5.35 6.736-5.35 8.083 0 1.031 0.36 1.863 1.07 2.497 0.72 0.633 1.55 0.949 2.5 0.949 1.03 0 1.9-0.278 2.61-0.832 0.72-0.555 1.19-0.832 1.43-0.832 0.87 0 1.55 1.426 2.02 4.279 0.56 2.773 1.07 7.766 1.55 14.977l0.95 13.55-3.92 1.784c-0.69 0.33-1.26 0.69-1.74 1.07-0.5-2.251-1.12-4.795-1.86-7.658-1.42-5.626-2.18-9.232-2.26-10.817 0-2.377-1.3-7.724-3.92-16.045-2.53-8.32-4.24-12.797-5.11-13.431-1.03-0.713-1.82-1.071-2.38-1.071-0.31 0-0.94 0.278-1.9 0.832-1.03 0.714-3.72 5.548-8.08 14.502-3.43 7.052-6.251 13.26-8.504 18.69 0.155-1.893 0.239-3.806 0.239-5.746 0-9.351-2.812-16.324-8.438-20.92-5.626-4.675-15.373-8.201-29.24-10.578-4.834-0.872-8.914-1.307-12.242-1.307zm-1.903 9.627c4.834 0 12.005 0.792 21.514 2.377 5.23 1.03 8.993 2.022 11.291 2.973s4.359 2.415 6.182 4.396c1.822 2.06 2.972 3.764 3.447 5.111 0.555 1.348 0.832 3.764 0.832 7.25 0 8.321-0.912 15.374-2.734 21.159-1.744 5.784-5.152 11.529-10.223 17.234-8.954 9.984-16.957 14.977-24.01 14.977h-6.418l0.951-6.063c0.159-1.585 0.239-3.169 0.239-4.754 0-4.913-1.15-15.452-3.448-31.617-2.218-16.165-3.328-25.475-3.328-27.932 0-2.298 0.397-3.724 1.19-4.279 0.792-0.555 2.297-0.832 4.515-0.832zm96.368 1.25h8.56c5.54 0 11.01 0.752 16.4 2.258 2.69 0.792 4.71 1.427 6.06 1.902 1.35 0.396 2.14 0.714 2.38 0.951 0.24 0.159 0.36 0.396 0.36 0.713 0 1.744-1.31 4.992-3.93 9.746-2.61 4.755-4.95 8.043-7.01 9.866-1.9 1.743-5.23 3.922-9.98 6.537-4.76 2.615-7.69 3.922-8.8 3.922-0.16 0-0.44-1.94-0.83-5.823-0.4-3.962-0.83-8.479-1.31-13.551-0.48-5.15-0.83-8.518-1.07-10.103l-0.83-6.418zm-27.01 9.221c0.87 0 2.18 4.122 3.92 12.363 1.83 8.162 2.74 13.312 2.74 15.451 0 1.664-0.75 2.774-2.26 3.328-1.51 0.476-5.15 0.951-10.94 1.426l-9.386 0.713 1.428-3.684c2.138-5.705 4.908-12.044 8.318-19.017 3.49-7.053 5.55-10.58 6.18-10.58zm65.82 5.607c0.22 7.125 0.53 15.658 0.96 25.754 0.44 10.254 0.75 17.015 1 22.168-1.84-1.798-3.25-2.78-4.16-2.846-0.8 0-3.01-1.267-6.66-3.802-2.3-1.585-5.55-3.209-9.75-4.873-4.2-1.665-7.8-2.971-10.81-3.922-2.93-1.03-4.4-1.625-4.4-1.784 0-0.396 1.43-1.387 4.28-2.972 3.49-1.823 7.49-4.199 12-7.131 4.6-3.011 6.9-4.793 6.9-5.348 0-0.396 0.63-1.388 1.9-2.972 1.35-1.585 2.81-3.289 4.4-5.112 1.58-1.901 3.01-4.238 4.28-7.011 0.02-0.05 0.04-0.099 0.06-0.149zm-48.18 34.992c0.15 0.073 0.29 0.15 0.45 0.219 3.25 1.506 4.88 7.33 4.88 17.473 0 1.198 0.02 2.319 0.07 3.369-0.5-1.983-1.14-4.316-2-7.221-1.69-6.034-2.8-10.59-3.4-13.84z"
                      transform="translate(10.029 832.68)"/>
            </g>
        </g>
    </g>
</svg>
